<svg width="32" height="32" viewBox="0 0 32 32" fill="none" xmlns="http://www.w3.org/2000/svg">
<circle cx="16" cy="16" r="16" fill="white"/>
<path fill-rule="evenodd" clip-rule="evenodd" d="M9.36407 20.6777C8.97354 21.0682 8.97354 21.7014 9.36407 22.0919C9.75459 22.4824 10.3878 22.4824 10.7783 22.0919L15.728 17.1421L20.6778 22.0919C21.0683 22.4824 21.7015 22.4824 22.092 22.0919C22.4825 21.7014 22.4825 21.0682 22.092 20.6777L17.1422 15.7279L22.092 10.7782C22.4825 10.3876 22.4825 9.75448 22.092 9.36396C21.7015 8.97344 21.0683 8.97344 20.6778 9.36396L15.728 14.3137L10.7783 9.36396C10.3878 8.97344 9.75459 8.97344 9.36407 9.36396C8.97354 9.75449 8.97354 10.3877 9.36407 10.7782L14.3138 15.7279L9.36407 20.6777Z" fill="#FF6363"/>
</svg>
